<?xml version="1.0" standalone="no"?>
<!DOCTYPE svg PUBLIC "-//W3C//DTD SVG 20010904//EN"
 "http://www.w3.org/TR/2001/REC-SVG-20010904/DTD/svg10.dtd">
<svg version="1.0" xmlns="http://www.w3.org/2000/svg"
 width="591.000000pt" height="422.000000pt" viewBox="0 0 591.000000 422.000000"
 preserveAspectRatio="xMidYMid meet">

<g transform="translate(0.000000,422.000000) scale(0.100000,-0.100000)"
fill="#000000" stroke="none">
<path d="M2400 3478 c-69 -27 -161 -117 -210 -208 -69 -128 -138 -326 -190
-548 -10 -44 -16 -53 -39 -58 -71 -16 -264 -76 -329 -102 -256 -105 -351 -239
-276 -390 48 -96 180 -183 370 -246 l81 -26 22 -56 c29 -69 89 -146 145 -185
38 -27 45 -39 71 -122 41 -128 162 -365 239 -467 78 -104 202 -223 281 -270
183 -108 376 -108 561 0 79 47 247 216 313 315 72 109 164 300 203 422 29 90
37 104 69 126 60 41 106 98 141 173 l32 71 66 22 c96 31 237 102 297 150 65
52 103 124 103 195 0 99 -64 179 -200 250 -76 40 -297 117 -397 137 l-63 13
-14 50 c-8 28 -22 79 -30 112 -60 236 -156 456 -237 547 -72 81 -149 117 -249
117 -43 0 -122 -9 -175 -20 -122 -25 -178 -25 -291 0 -118 26 -223 25 -294 -2z
m798 -212 c51 -26 116 -141 167 -293 35 -102 115 -392 115 -414 0 -64 -593
-113 -956 -79 -147 14 -314 49 -321 67 -3 8 11 82 32 165 66 269 138 447 213
524 l35 36 76 -5 c42 -4 105 -13 141 -21 91 -22 187 -19 320 9 139 28 144 29
178 11z m-1194 -867 c61 -64 180 -105 399 -136 174 -24 680 -24 857 0 231 32
389 85 427 144 20 30 29 29 150 -7 110 -33 175 -59 241 -98 40 -23 42 -26 27
-42 -66 -73 -370 -170 -675 -214 -359 -53 -841 -53 -1200 0 -296 43 -580 132
-643 202 -18 20 -18 21 20 46 21 14 67 37 103 52 62 25 234 81 255 83 6 1 23
-13 39 -30z m1451 -688 c-90 -339 -285 -637 -480 -731 -33 -16 -76 -30 -95
-32 l-35 -3 -3 112 -3 112 61 121 60 120 -59 119 -60 119 47 11 c44 11 177 47
462 125 69 18 126 32 128 31 2 -2 -9 -48 -23 -104z"/>
</g>
</svg>
